<svg width="294" height="430" viewBox="0 0 294 430" fill="none" xmlns="http://www.w3.org/2000/svg">
<path d="M322.138 0H214.926V1.11287H322.138V0Z" fill="white"/>
<path d="M322.138 26.8037H214.927V27.9166H322.138V26.8037Z" fill="white"/>
<path d="M322.138 53.6025H214.927V54.7154H322.138V53.6025Z" fill="white"/>
<path d="M322.138 80.4014H214.927V81.5143H322.138V80.4014Z" fill="white"/>
<path d="M322.138 107.206H214.927V108.319H322.138V107.206Z" fill="white"/>
<path d="M322.138 134.004H214.927V135.117H322.138V134.004Z" fill="white"/>
<path d="M322.138 160.814H214.927V161.927H322.138V160.814Z" fill="white"/>
<path d="M322.138 187.612H214.927V188.725H322.138V187.612Z" fill="white"/>
<path d="M322.138 214.411H214.927V215.524H322.138V214.411Z" fill="white"/>
<path d="M215.485 0.553711H214.373V214.965H215.485V0.553711Z" fill="white"/>
<path d="M242.284 0.553711H241.171V214.965H242.284V0.553711Z" fill="white"/>
<path d="M269.088 0.553711H267.976V214.965H269.088V0.553711Z" fill="white"/>
<path d="M214.926 0H107.715V1.11287H214.926V0Z" fill="white"/>
<path d="M214.926 26.8037H107.714V27.9166H214.926V26.8037Z" fill="white"/>
<path d="M214.926 53.6025H107.714V54.7154H214.926V53.6025Z" fill="white"/>
<path d="M214.926 80.4014H107.714V81.5143H214.926V80.4014Z" fill="white"/>
<path d="M214.926 107.206H107.714V108.319H214.926V107.206Z" fill="white"/>
<path d="M214.926 134.004H107.714V135.117H214.926V134.004Z" fill="white"/>
<path d="M214.926 160.814H107.714V161.927H214.926V160.814Z" fill="white"/>
<path d="M214.926 187.612H107.714V188.725H214.926V187.612Z" fill="white"/>
<path d="M214.926 214.411H107.714V215.524H214.926V214.411Z" fill="white"/>
<path d="M108.274 0.553711H107.161V214.965H108.274V0.553711Z" fill="white"/>
<path d="M135.072 0.553711H133.959V214.965H135.072V0.553711Z" fill="white"/>
<path d="M161.877 0.553711H160.764V214.965H161.877V0.553711Z" fill="white"/>
<path d="M188.681 0.553711H187.568V214.965H188.681V0.553711Z" fill="white"/>
<path d="M215.485 0.553711H214.372V214.965H215.485V0.553711Z" fill="white"/>
<path d="M107.771 0H0.55957V1.11287H107.771V0Z" fill="white"/>
<path d="M107.77 26.8037H0.559082V27.9166H107.77V26.8037Z" fill="white"/>
<path d="M107.77 53.6025H0.559082V54.7154H107.77V53.6025Z" fill="white"/>
<path d="M107.77 80.4014H0.559082V81.5143H107.77V80.4014Z" fill="white"/>
<path d="M107.77 107.206H0.559082V108.319H107.77V107.206Z" fill="white"/>
<path d="M107.77 134.004H0.559082V135.117H107.77V134.004Z" fill="white"/>
<path d="M107.77 160.814H0.559082V161.927H107.77V160.814Z" fill="white"/>
<path d="M107.77 187.612H0.559082V188.725H107.77V187.612Z" fill="white"/>
<path d="M107.77 214.411H0.559082V215.524H107.77V214.411Z" fill="white"/>
<path d="M1.11287 0.553711H0V214.965H1.11287V0.553711Z" fill="white"/>
<path d="M27.9117 0.553711H26.7988V214.965H27.9117V0.553711Z" fill="white"/>
<path d="M54.7213 0.553711H53.6084V214.965H54.7213V0.553711Z" fill="white"/>
<path d="M81.5201 0.553711H80.4072V214.965H81.5201V0.553711Z" fill="white"/>
<path d="M108.324 0.553711H107.211V214.965H108.324V0.553711Z" fill="white"/>
<path d="M322.138 214.411H214.926V215.524H322.138V214.411Z" fill="white"/>
<path d="M322.138 241.215H214.927V242.328H322.138V241.215Z" fill="white"/>
<path d="M322.138 268.014H214.927V269.127H322.138V268.014Z" fill="white"/>
<path d="M322.138 294.812H214.927V295.925H322.138V294.812Z" fill="white"/>
<path d="M322.138 321.622H214.927V322.735H322.138V321.622Z" fill="white"/>
<path d="M322.138 348.421H214.927V349.534H322.138V348.421Z" fill="white"/>
<path d="M322.138 375.226H214.927V376.338H322.138V375.226Z" fill="white"/>
<path d="M322.138 402.023H214.927V403.136H322.138V402.023Z" fill="white"/>
<path d="M322.138 428.822H214.927V429.935H322.138V428.822Z" fill="white"/>
<path d="M215.485 214.965H214.373V429.376H215.485V214.965Z" fill="white"/>
<path d="M242.284 214.965H241.171V429.376H242.284V214.965Z" fill="white"/>
<path d="M269.088 214.965H267.976V429.376H269.088V214.965Z" fill="white"/>
<path d="M214.926 214.411H107.715V215.524H214.926V214.411Z" fill="white"/>
<path d="M214.926 241.215H107.714V242.328H214.926V241.215Z" fill="white"/>
<path d="M214.926 268.014H107.714V269.127H214.926V268.014Z" fill="white"/>
<path d="M214.926 294.812H107.714V295.925H214.926V294.812Z" fill="white"/>
<path d="M214.926 321.622H107.714V322.735H214.926V321.622Z" fill="white"/>
<path d="M214.926 348.421H107.714V349.534H214.926V348.421Z" fill="white"/>
<path d="M214.926 375.226H107.714V376.338H214.926V375.226Z" fill="white"/>
<path d="M214.926 402.023H107.714V403.136H214.926V402.023Z" fill="white"/>
<path d="M214.926 428.822H107.714V429.935H214.926V428.822Z" fill="white"/>
<path d="M108.274 214.965H107.161V429.376H108.274V214.965Z" fill="white"/>
<path d="M135.072 214.965H133.959V429.376H135.072V214.965Z" fill="white"/>
<path d="M161.877 214.965H160.764V429.376H161.877V214.965Z" fill="white"/>
<path d="M188.681 214.965H187.568V429.376H188.681V214.965Z" fill="white"/>
<path d="M215.485 214.965H214.372V429.376H215.485V214.965Z" fill="white"/>
<path d="M107.771 214.411H0.55957V215.524H107.771V214.411Z" fill="white"/>
<path d="M107.77 241.215H0.559082V242.328H107.77V241.215Z" fill="white"/>
<path d="M107.77 268.014H0.559082V269.127H107.77V268.014Z" fill="white"/>
<path d="M107.77 294.812H0.559082V295.925H107.77V294.812Z" fill="white"/>
<path d="M107.77 321.622H0.559082V322.735H107.77V321.622Z" fill="white"/>
<path d="M107.77 348.421H0.559082V349.534H107.77V348.421Z" fill="white"/>
<path d="M107.77 375.226H0.559082V376.338H107.77V375.226Z" fill="white"/>
<path d="M107.77 402.023H0.559082V403.136H107.77V402.023Z" fill="white"/>
<path d="M107.77 428.822H0.559082V429.935H107.77V428.822Z" fill="white"/>
<path d="M1.11287 214.965H0V429.376H1.11287V214.965Z" fill="white"/>
<path d="M27.9117 214.965H26.7988V429.376H27.9117V214.965Z" fill="white"/>
<path d="M54.7213 214.965H53.6084V429.376H54.7213V214.965Z" fill="white"/>
<path d="M81.5201 214.965H80.4072V429.376H81.5201V214.965Z" fill="white"/>
<path d="M108.324 214.965H107.211V429.376H108.324V214.965Z" fill="white"/>
</svg>
