<svg width="393" height="429" viewBox="0 0 393 429" fill="none" xmlns="http://www.w3.org/2000/svg">
<path d="M432.732 0H325.521V1.11287H432.732V0Z" fill="white"/>
<path d="M432.732 26.8042H325.521V27.9171H432.732V26.8042Z" fill="white"/>
<path d="M432.732 53.603H325.521V54.7159H432.732V53.603Z" fill="white"/>
<path d="M432.732 80.4014H325.521V81.5143H432.732V80.4014Z" fill="white"/>
<path d="M432.732 107.206H325.521V108.318H432.732V107.206Z" fill="white"/>
<path d="M432.732 134.004H325.521V135.117H432.732V134.004Z" fill="white"/>
<path d="M432.732 160.814H325.521V161.927H432.732V160.814Z" fill="white"/>
<path d="M432.732 187.613H325.521V188.726H432.732V187.613Z" fill="white"/>
<path d="M432.732 214.411H325.521V215.524H432.732V214.411Z" fill="white"/>
<path d="M326.08 0.553711H324.967V214.965H326.08V0.553711Z" fill="white"/>
<path d="M352.878 0.553711H351.766V214.965H352.878V0.553711Z" fill="white"/>
<path d="M379.683 0.553711H378.57V214.965H379.683V0.553711Z" fill="white"/>
<path d="M324.413 0H217.202V1.11287H324.413V0Z" fill="white"/>
<path d="M324.413 26.8042H217.202V27.9171H324.413V26.8042Z" fill="white"/>
<path d="M324.413 53.603H217.202V54.7159H324.413V53.603Z" fill="white"/>
<path d="M324.413 80.4014H217.202V81.5143H324.413V80.4014Z" fill="white"/>
<path d="M324.413 107.206H217.202V108.318H324.413V107.206Z" fill="white"/>
<path d="M324.413 134.004H217.202V135.117H324.413V134.004Z" fill="white"/>
<path d="M324.413 160.814H217.202V161.927H324.413V160.814Z" fill="white"/>
<path d="M324.413 187.613H217.202V188.726H324.413V187.613Z" fill="white"/>
<path d="M324.413 214.411H217.202V215.524H324.413V214.411Z" fill="white"/>
<path d="M217.761 0.553711H216.648V214.965H217.761V0.553711Z" fill="white"/>
<path d="M244.56 0.553711H243.447V214.965H244.56V0.553711Z" fill="white"/>
<path d="M271.364 0.553711H270.251V214.965H271.364V0.553711Z" fill="white"/>
<path d="M298.163 0.553711H297.05V214.965H298.163V0.553711Z" fill="white"/>
<path d="M324.967 0.553711H323.854V214.965H324.967V0.553711Z" fill="white"/>
<path d="M216.089 0H108.878V1.11287H216.089V0Z" fill="white"/>
<path d="M216.089 26.8042H108.878V27.9171H216.089V26.8042Z" fill="white"/>
<path d="M216.089 53.603H108.878V54.7159H216.089V53.603Z" fill="white"/>
<path d="M216.089 80.4014H108.878V81.5143H216.089V80.4014Z" fill="white"/>
<path d="M216.089 107.206H108.878V108.318H216.089V107.206Z" fill="white"/>
<path d="M216.089 134.004H108.878V135.117H216.089V134.004Z" fill="white"/>
<path d="M216.089 160.814H108.878V161.927H216.089V160.814Z" fill="white"/>
<path d="M216.089 187.613H108.878V188.726H216.089V187.613Z" fill="white"/>
<path d="M216.089 214.411H108.878V215.524H216.089V214.411Z" fill="white"/>
<path d="M109.437 0.553711H108.324V214.965H109.437V0.553711Z" fill="white"/>
<path d="M136.236 0.553711H135.123V214.965H136.236V0.553711Z" fill="white"/>
<path d="M163.041 0.553711H161.928V214.965H163.041V0.553711Z" fill="white"/>
<path d="M189.844 0.553711H188.731V214.965H189.844V0.553711Z" fill="white"/>
<path d="M216.648 0.553711H215.535V214.965H216.648V0.553711Z" fill="white"/>
<path d="M107.771 0H0.55957V1.11287H107.771V0Z" fill="white"/>
<path d="M107.771 26.8042H0.55957V27.9171H107.771V26.8042Z" fill="white"/>
<path d="M107.771 53.603H0.55957V54.7159H107.771V53.603Z" fill="white"/>
<path d="M107.771 80.4014H0.55957V81.5143H107.771V80.4014Z" fill="white"/>
<path d="M107.771 107.206H0.55957V108.318H107.771V107.206Z" fill="white"/>
<path d="M107.771 134.004H0.55957V135.117H107.771V134.004Z" fill="white"/>
<path d="M107.771 160.814H0.55957V161.927H107.771V160.814Z" fill="white"/>
<path d="M107.771 187.613H0.55957V188.726H107.771V187.613Z" fill="white"/>
<path d="M107.771 214.411H0.55957V215.524H107.771V214.411Z" fill="white"/>
<path d="M1.11287 0.553711H0V214.965H1.11287V0.553711Z" fill="white"/>
<path d="M27.9117 0.553711H26.7988V214.965H27.9117V0.553711Z" fill="white"/>
<path d="M54.7213 0.553711H53.6084V214.965H54.7213V0.553711Z" fill="white"/>
<path d="M81.5201 0.553711H80.4072V214.965H81.5201V0.553711Z" fill="white"/>
<path d="M108.324 0.553711H107.211V214.965H108.324V0.553711Z" fill="white"/>
<path d="M432.732 214.411H325.521V215.524H432.732V214.411Z" fill="white"/>
<path d="M432.732 241.215H325.521V242.328H432.732V241.215Z" fill="white"/>
<path d="M432.732 268.014H325.521V269.127H432.732V268.014Z" fill="white"/>
<path d="M432.732 294.812H325.521V295.925H432.732V294.812Z" fill="white"/>
<path d="M432.732 321.623H325.521V322.735H432.732V321.623Z" fill="white"/>
<path d="M432.732 348.421H325.521V349.534H432.732V348.421Z" fill="white"/>
<path d="M432.732 375.225H325.521V376.338H432.732V375.225Z" fill="white"/>
<path d="M432.732 402.024H325.521V403.137H432.732V402.024Z" fill="white"/>
<path d="M432.732 428.822H325.521V429.935H432.732V428.822Z" fill="white"/>
<path d="M326.08 214.965H324.967V429.376H326.08V214.965Z" fill="white"/>
<path d="M352.878 214.965H351.766V429.376H352.878V214.965Z" fill="white"/>
<path d="M379.683 214.965H378.57V429.376H379.683V214.965Z" fill="white"/>
<path d="M324.413 214.411H217.202V215.524H324.413V214.411Z" fill="white"/>
<path d="M324.413 241.215H217.202V242.328H324.413V241.215Z" fill="white"/>
<path d="M324.413 268.014H217.202V269.127H324.413V268.014Z" fill="white"/>
<path d="M324.413 294.812H217.202V295.925H324.413V294.812Z" fill="white"/>
<path d="M324.413 321.623H217.202V322.735H324.413V321.623Z" fill="white"/>
<path d="M324.413 348.421H217.202V349.534H324.413V348.421Z" fill="white"/>
<path d="M324.413 375.225H217.202V376.338H324.413V375.225Z" fill="white"/>
<path d="M324.413 402.024H217.202V403.137H324.413V402.024Z" fill="white"/>
<path d="M324.413 428.822H217.202V429.935H324.413V428.822Z" fill="white"/>
<path d="M217.761 214.965H216.648V429.376H217.761V214.965Z" fill="white"/>
<path d="M244.56 214.965H243.447V429.376H244.56V214.965Z" fill="white"/>
<path d="M271.364 214.965H270.251V429.376H271.364V214.965Z" fill="white"/>
<path d="M298.163 214.965H297.05V429.376H298.163V214.965Z" fill="white"/>
<path d="M324.967 214.965H323.854V429.376H324.967V214.965Z" fill="white"/>
<path d="M216.089 214.411H108.878V215.524H216.089V214.411Z" fill="white"/>
<path d="M216.089 241.215H108.878V242.328H216.089V241.215Z" fill="white"/>
<path d="M216.089 268.014H108.878V269.127H216.089V268.014Z" fill="white"/>
<path d="M216.089 294.812H108.878V295.925H216.089V294.812Z" fill="white"/>
<path d="M216.089 321.623H108.878V322.735H216.089V321.623Z" fill="white"/>
<path d="M216.089 348.421H108.878V349.534H216.089V348.421Z" fill="white"/>
<path d="M216.089 375.225H108.878V376.338H216.089V375.225Z" fill="white"/>
<path d="M216.089 402.024H108.878V403.137H216.089V402.024Z" fill="white"/>
<path d="M216.089 428.822H108.878V429.935H216.089V428.822Z" fill="white"/>
<path d="M109.437 214.965H108.324V429.376H109.437V214.965Z" fill="white"/>
<path d="M136.236 214.965H135.123V429.376H136.236V214.965Z" fill="white"/>
<path d="M163.041 214.965H161.928V429.376H163.041V214.965Z" fill="white"/>
<path d="M189.844 214.965H188.731V429.376H189.844V214.965Z" fill="white"/>
<path d="M216.648 214.965H215.535V429.376H216.648V214.965Z" fill="white"/>
<path d="M107.771 214.411H0.55957V215.524H107.771V214.411Z" fill="white"/>
<path d="M107.771 241.215H0.55957V242.328H107.771V241.215Z" fill="white"/>
<path d="M107.771 268.014H0.55957V269.127H107.771V268.014Z" fill="white"/>
<path d="M107.771 294.812H0.55957V295.925H107.771V294.812Z" fill="white"/>
<path d="M107.771 321.623H0.55957V322.735H107.771V321.623Z" fill="white"/>
<path d="M107.771 348.421H0.55957V349.534H107.771V348.421Z" fill="white"/>
<path d="M107.771 375.225H0.55957V376.338H107.771V375.225Z" fill="white"/>
<path d="M107.771 402.024H0.55957V403.137H107.771V402.024Z" fill="white"/>
<path d="M107.771 428.822H0.55957V429.935H107.771V428.822Z" fill="white"/>
<path d="M1.11287 214.965H0V429.376H1.11287V214.965Z" fill="white"/>
<path d="M27.9117 214.965H26.7988V429.376H27.9117V214.965Z" fill="white"/>
<path d="M54.7213 214.965H53.6084V429.376H54.7213V214.965Z" fill="white"/>
<path d="M81.5201 214.965H80.4072V429.376H81.5201V214.965Z" fill="white"/>
<path d="M108.324 214.965H107.211V429.376H108.324V214.965Z" fill="white"/>
</svg>
