<svg width="121" height="121" viewBox="0 0 121 121" fill="none" xmlns="http://www.w3.org/2000/svg">
<g clip-path="url(#clip0_34_2552)">
<path d="M60.5 0.5C27.3631 0.5 0.5 27.3631 0.5 60.5C0.5 93.6387 27.3631 120.5 60.5 120.5C93.6387 120.5 120.5 93.6387 120.5 60.5C120.5 27.3631 93.6387 0.5 60.5 0.5ZM60.5 113.118C31.5519 113.118 8 89.4481 8 60.4998C8 31.5516 31.5519 7.99977 60.5 7.99977C89.4481 7.99977 113 31.5518 113 60.4998C113 89.4478 89.4481 113.118 60.5 113.118ZM84.4456 38.5456L49.2424 73.97L33.3893 58.1169C31.9249 56.6525 29.5511 56.6525 28.0849 58.1169C26.6205 59.5812 26.6205 61.955 28.0849 63.4194L46.6455 81.9819C48.1099 83.4444 50.4836 83.4444 51.9499 81.9819C52.1186 81.8131 52.2631 81.6293 52.3944 81.4381L89.7519 43.8499C91.2144 42.3855 91.2144 40.0118 89.7519 38.5456C88.2856 37.0812 85.9119 37.0812 84.4456 38.5456Z" fill="#FC3F1D"/>
</g>
<defs>
<clipPath id="clip0_34_2552">
<rect width="120" height="120" fill="white" transform="translate(0.5 0.5)"/>
</clipPath>
</defs>
</svg>
