<svg width="123" height="120" viewBox="0 0 123 120" fill="none" xmlns="http://www.w3.org/2000/svg">
<path d="M61.4998 93.1725C62.8152 93.1725 63.9173 92.73 64.8059 91.845C65.6895 90.96 66.1313 89.865 66.1313 88.56C66.1313 87.255 65.687 86.1575 64.7984 85.2675C63.9097 84.3775 62.8102 83.935 61.4998 83.94C60.1895 83.945 59.09 84.3875 58.2013 85.2675C57.3127 86.1475 56.8684 87.245 56.8684 88.56C56.8684 89.875 57.3127 90.97 58.2013 91.845C59.09 92.72 60.1895 93.1625 61.4998 93.1725ZM57.7344 67.1996C57.7344 69.2792 59.4203 70.965 61.4998 70.965C63.5794 70.965 65.2653 69.2792 65.2653 67.1996V29.1454C65.2653 27.0658 63.5794 25.38 61.4998 25.38C59.4203 25.38 57.7344 27.0658 57.7344 29.1454V67.1996ZM46.7559 120C40.1516 120 33.8156 117.387 29.1316 112.731L8.62868 92.3514C3.9076 87.6587 1.25293 81.277 1.25293 74.6204V45.4188C1.25293 38.7789 3.89433 32.4118 8.59453 27.7219L29.0579 7.30308C33.7447 2.62645 40.0953 0 46.7163 0H76.2438C82.8481 0 89.1841 2.61325 93.8681 7.26907L114.371 27.6486C119.092 32.3413 121.747 38.723 121.747 45.3796V74.5812C121.747 81.2211 119.105 87.5882 114.405 92.2781L93.9418 112.697C89.255 117.374 82.9044 120 76.2834 120H46.7559ZM32.3443 105.214C37.0297 109.88 43.373 112.5 49.9856 112.5H73.0141C79.6267 112.5 85.97 109.88 90.6554 105.214L106.857 89.0785C111.568 84.3872 114.216 78.0128 114.216 71.3646V48.6354C114.216 41.9872 111.568 35.6128 106.857 30.9215L90.6554 14.7861C85.97 10.1198 79.6267 7.5 73.0141 7.5H49.9856C43.373 7.5 37.0297 10.1198 32.3443 14.7861L16.1425 30.9215C11.4318 35.6128 8.78379 41.9872 8.78379 48.6354V71.3646C8.78379 78.0128 11.4318 84.3872 16.1425 89.0785L32.3443 105.214Z" fill="#FC3F1D"/>
</svg>
